<svg xmlns="http://www.w3.org/2000/svg" width="531.9" height="268.3" viewBox="0 0 531.9 268.3">
<rect width="100%" height="100%" fill="white"/>
<g fill="none" stroke="black" stroke-width="3" stroke-linecap="round" stroke-linejoin="round">
<path d="M 40.000 228.276 L 40.000 102.759"/>
<path d="M 40.000 174.483 L 48.966 201.379 L 66.897 219.310 L 84.828 228.276 L 111.724 228.276"/>
<text x="40.000" y="258.276" font-size="18" fill="#555">r</text>
<path d="M 234.552 228.276 L 216.621 219.310 L 198.690 201.379 L 189.724 174.483 L 189.724 156.552 L 198.690 129.655 L 216.621 111.724 L 234.552 102.759 L 261.448 102.759 L 279.379 111.724 L 297.310 129.655 L 306.276 156.552 L 306.276 174.483 L 297.310 201.379 L 279.379 219.310 L 261.448 228.276 Z"/>
<text x="189.724" y="258.276" font-size="18" fill="#555">o</text>
<path d="M 491.862 228.276 L 491.862 40.000"/>
<path d="M 491.862 201.379 L 473.931 219.310 L 456.000 228.276 L 429.103 228.276 L 411.172 219.310 L 393.241 201.379 L 384.276 174.483 L 384.276 156.552 L 393.241 129.655 L 411.172 111.724 L 429.103 102.759 L 456.000 102.759 L 473.931 111.724 L 491.862 129.655"/>
<text x="384.276" y="258.276" font-size="18" fill="#555">q</text>
</g>
</svg>
